<?xml version="1.0" standalone="no"?>
<!DOCTYPE svg PUBLIC "-//W3C//DTD SVG 20010904//EN"
 "http://www.w3.org/TR/2001/REC-SVG-20010904/DTD/svg10.dtd">
<svg version="1.0" xmlns="http://www.w3.org/2000/svg"
 width="275.000000pt" height="275.000000pt" viewBox="0 0 275.000000 275.000000"
 preserveAspectRatio="xMidYMid meet">
<metadata>
Created by potrace 1.14, written by Peter Selinger 2001-2017
</metadata>
<g transform="translate(0.000000,275.000000) scale(0.100000,-0.100000)"
fill="#000000" stroke="none">
<path d="M1235 2743 c-11 -2 -30 -6 -42 -9 l-23 -4 0 -440 0 -440 58 0 58 0
-1 178 0 177 71 -3 c137 -7 262 44 321 131 39 58 52 148 33 229 -16 67 -92
146 -160 167 -42 14 -266 23 -315 14z m286 -114 c50 -28 78 -70 83 -125 10
-122 -70 -203 -206 -209 -33 -1 -72 0 -86 4 l-26 7 -1 168 c-1 196 -8 185 116
181 59 -1 86 -7 120 -26z"/>
<path d="M139 2723 c-1 -10 -2 -29 -4 -43 -1 -14 -5 -77 -9 -140 -4 -63 -9
-128 -11 -145 -2 -16 -7 -79 -10 -140 -4 -60 -8 -126 -10 -145 -2 -19 -6 -86
-10 -147 l-6 -113 55 0 56 0 1 38 c0 20 2 55 4 77 8 121 16 242 21 340 3 61 7
137 9 170 2 33 4 78 5 100 1 37 3 33 24 -40 23 -82 216 -667 222 -674 2 -2 23
-5 47 -6 l43 -3 74 202 c41 110 102 282 136 381 l63 180 1 -65 c1 -36 3 -96 5
-135 11 -201 15 -279 21 -375 4 -58 7 -124 8 -147 l0 -43 59 0 58 0 -5 83 c-4
45 -8 118 -11 162 -3 44 -7 117 -10 163 -4 46 -8 120 -10 165 -3 45 -8 118
-11 162 -4 44 -6 87 -6 95 2 55 -4 60 -82 60 l-73 0 -10 -32 c-6 -18 -25 -71
-42 -118 -82 -219 -175 -490 -186 -537 -7 -36 -25 -45 -25 -14 0 35 -68 242
-212 644 l-21 57 -73 0 c-63 0 -74 -3 -75 -17z"/>
<path d="M1870 2295 l0 -445 249 0 249 0 4 49 3 48 -186 0 c-103 0 -191 3
-196 6 -5 3 -8 74 -8 159 l0 153 173 3 c102 1 173 6 173 12 1 6 2 17 2 25 0 8
-1 25 -2 38 l-1 23 -166 -1 c-102 0 -168 3 -173 10 -6 8 -8 215 -2 260 1 6 66
9 180 8 l179 -3 4 39 c2 22 2 45 0 50 -2 7 -83 11 -243 11 l-239 0 0 -445z"/>
<path d="M2520 2295 l0 -445 58 0 57 0 0 445 0 445 -57 0 -58 0 0 -445z"/>
<path d="M97 1783 c-2 -5 -3 -395 -3 -868 l1 -860 490 -3 490 -2 0 92 0 93
-377 3 -378 2 0 315 0 315 340 0 339 0 0 81 c0 45 -3 88 -6 95 -4 11 -62 14
-306 14 -166 0 -317 0 -334 0 l-33 0 0 270 0 270 358 2 357 3 1 93 1 92 -468
0 c-257 0 -470 -3 -472 -7z"/>
<path d="M1209 1763 c10 -33 139 -428 426 -1303 52 -157 102 -312 113 -345
l19 -60 125 -3 126 -3 10 28 c5 15 105 294 221 618 117 325 225 626 241 670
93 257 150 415 150 420 0 3 -53 5 -119 5 l-118 0 -16 -42 c-115 -309 -426
-1250 -462 -1396 -8 -30 -16 -56 -18 -58 -2 -3 -14 33 -26 78 -12 46 -23 90
-25 98 -24 91 -102 342 -232 752 -86 271 -161 510 -167 531 l-9 37 -124 0
-123 0 8 -27z"/>
</g>
</svg>
